<?xml version="1.0" encoding="UTF-8" standalone="no"?>
<svg
   width="508.74448"
   height="508.74448"
   viewBox="0 0 23.847397 23.847397"
   version="1.1"
   id="svg1"
   xmlns="http://www.w3.org/2000/svg"
   xmlns:svg="http://www.w3.org/2000/svg">
  <defs
     id="defs1" />
  <circle
     style="fill:#ffffff;stroke-width:0.046875"
     id="path2"
     cx="11.923698"
     cy="11.923698"
     r="11.923698" />
  <path
     fill="#000000"
     d="m 11.903475,0.7946855 c -5.8432663,0 -10.634911,4.5069466 -11.08838768,10.2352205 l 5.96474908,2.46491 a 3.1409523,3.1409523 0 0 1 1.7731033,-0.547139 c 0.058423,0 0.1159194,0.0037 0.1743428,0.0056 L 11.380446,9.112135 V 9.057421 a 4.1990647,4.1990647 0 0 1 4.195355,-4.1953553 c 2.312825,0 4.195356,1.8834586 4.195356,4.1981374 0,2.3146789 -1.882531,4.1962829 -4.195356,4.1962829 h -0.09737 l -3.7799,2.699531 c 0,0.04822 0.0037,0.09737 0.0037,0.14745 A 3.1455891,3.1455891 0 0 1 8.5585039,19.252765 3.1641362,3.1641362 0 0 1 5.4694834,16.723867 l -4.270471,-1.768466 c 1.3224086,4.671088 5.6104994,8.095811 10.7044626,8.095811 6.145583,0 11.127336,-4.98268 11.127336,-11.128263 0,-6.1455836 -4.98268,-11.1282635 -11.127336,-11.1282635 z M 7.7869443,17.681825 6.4209499,17.116139 c 0.2429671,0.503553 0.6621317,0.926427 1.2185449,1.159194 A 2.3656833,2.3656833 0 0 0 10.73408,15.192804 2.3619739,2.3619739 0 0 0 7.7155379,13.882451 L 9.1279,14.466685 a 1.7416089,1.7416089 0 0 1 -1.3400284,3.21514 z M 18.372705,9.0546389 a 2.7996856,2.7996856 0 0 0 -2.795976,-2.7959761 2.7959762,2.7959762 0 1 0 2.795976,2.7959761 z m -4.889944,-0.00464 a 2.1009234,2.1009234 0 1 1 4.201846,0 2.1023144,2.1023144 0 0 1 -2.101387,2.1004601 2.0995323,2.0995323 0 0 1 -2.100459,-2.1004601 z"
     id="path1"
     style="stroke-width:0.927355" />
</svg>
